HIERARCHY
ROOT Hips
{
    OFFSET 0.000000 0.000000 0.000000
    CHANNELS 6 Xposition Yposition Zposition Zrotation Xrotation Yrotation
    JOINT Spine
    {
        OFFSET -0.000000 7.236184 0.000000
        CHANNELS 3 Zrotation Xrotation Yrotation
        JOINT Spine1
        {
            OFFSET -0.000000 20.420147 0.000000
            CHANNELS 3 Zrotation Xrotation Yrotation
            JOINT Neck
            {
                OFFSET -0.000000 20.336288 1.848754
                CHANNELS 3 Zrotation Xrotation Yrotation
                JOINT Head
                {
                    OFFSET -0.000000 12.354461 -1.764923
                    CHANNELS 3 Zrotation Xrotation Yrotation
                    End Site
                    {
                        OFFSET -0.000000 22.061537 0.000000
                    }
                }
            }
            JOINT LeftShoulder
            {
                OFFSET 3.573296 18.396038 -0.314103
                CHANNELS 3 Zrotation Xrotation Yrotation
                JOINT LeftArm
                {
                    OFFSET 10.880760 0.000000 0.000000
                    CHANNELS 3 Zrotation Xrotation Yrotation
                    JOINT LeftForeArm
                    {
                        OFFSET 27.185530 0.000000 0.000000
                        CHANNELS 3 Zrotation Xrotation Yrotation
                        JOINT LeftHand
                        {
                            OFFSET 27.825975 0.000000 0.000000
                            CHANNELS 3 Zrotation Xrotation Yrotation
                            End Site
                            {
                                OFFSET 13.236923 0.000000 0.000000
                            }
                        }
                    }
                }
            }
            JOINT RightShoulder
            {
                OFFSET -3.474926 18.396038 -0.314103
                CHANNELS 3 Zrotation Xrotation Yrotation
                JOINT RightArm
                {
                    OFFSET -10.880760 0.000000 0.000000
                    CHANNELS 3 Zrotation Xrotation Yrotation
                    JOINT RightForeArm
                    {
                        OFFSET -27.185530 0.000000 0.000000
                        CHANNELS 3 Zrotation Xrotation Yrotation
                        JOINT RightHand
                        {
                            OFFSET -27.825975 0.000000 0.000000
                            CHANNELS 3 Zrotation Xrotation Yrotation
                            End Site
                            {
                                OFFSET -13.236923 0.000000 0.000000
                            }
                        }
                    }
                }
            }
        }
    }
    JOINT LeftUpLeg
    {
        OFFSET 8.824615 0.000000 0.000000
        CHANNELS 3 Zrotation Xrotation Yrotation
        JOINT LeftLeg
        {
            OFFSET -0.000000 -35.111282 0.000000
            CHANNELS 3 Zrotation Xrotation Yrotation
            JOINT LeftFoot
            {
                OFFSET -0.000000 -42.324711 0.000000
                CHANNELS 3 Zrotation Xrotation Yrotation
                JOINT LeftToeBase
                {
                    OFFSET -0.000000 -5.735999 13.236923
                    CHANNELS 3 Zrotation Xrotation Yrotation
                    End Site
                    {
                        OFFSET -0.000000 0.000000 3.529846
                    }
                }
            }
        }
    }
    JOINT RightUpLeg
    {
        OFFSET -8.824615 0.000000 0.000000
        CHANNELS 3 Zrotation Xrotation Yrotation
        JOINT RightLeg
        {
            OFFSET -0.000000 -35.111282 0.000000
            CHANNELS 3 Zrotation Xrotation Yrotation
            JOINT RightFoot
            {
                OFFSET -0.000000 -42.324711 0.000000
                CHANNELS 3 Zrotation Xrotation Yrotation
                JOINT RightToeBase
                {
                    OFFSET -0.000000 -5.735999 13.236923
                    CHANNELS 3 Zrotation Xrotation Yrotation
                    End Site
                    {
                        OFFSET -0.000000 0.000000 3.529846
                    }
                }
            }
        }
    }
}
MOTION
Frames:    9
Frame Time:    0.008333
-7.916209    81.433456    108.826866    3.743325    -5.323307    -150.757309    -2.423745    -12.345602    0.777246    1.160906    16.147699    0.874773    1.932926    15.523737    -10.939211    14.690781    8.410611    -10.406517    6.503731    10.080492    -14.530396    -32.239990    34.220825    -71.079193    0.079374    -32.381096    -129.370895    35.979298    -27.669556    16.134008    3.303474    16.221403    7.842786    52.268867    6.172719    48.220669    -14.609254    -45.556984    128.046829    -24.478382    -19.231876    -3.753524    5.499882    -23.678665    -2.605989    0.879951    31.765522    9.152390    -8.692088    -11.610944    -12.993648    0.466873    0.481092    -0.517065    -9.550999    -6.296150    -10.318880    11.483340    24.759565    -17.779526    0.000000    0.000000    0.000000    0.000000    0.000000    0.000000    
-7.914449    81.430946    108.834198    3.879438    -5.298156    -149.528046    -2.429079    -12.351143    0.883001    1.076900    16.148611    0.993055    1.853696    15.630630    -11.050339    14.740143    8.397534    -10.515448    6.435150    10.091574    -14.347927    -31.829487    34.250595    -71.452522    -0.070371    -32.078800    -129.428635    36.026272    -27.628893    16.128313    3.556040    16.426384    7.620630    52.543739    4.870616    47.289974    -15.826333    -45.731506    126.829659    -23.585056    -17.960629    -2.841697    5.219407    -24.007294    -3.139357    1.131099    31.781967    8.384363    -8.695059    -11.480687    -13.018395    0.538214    0.488182    -0.596068    -9.488549    -6.016324    -10.812350    11.602942    24.682243    -18.156765    0.000000    0.000000    0.000000    0.000000    0.000000    0.000000    
-7.914465    81.430603    108.841347    4.020947    -5.277197    -148.287125    -2.428477    -12.353644    0.985648    0.975677    16.131220    1.110237    1.770938    15.753196    -11.165217    14.832967    8.352851    -10.621042    6.375290    10.108709    -14.167617    -31.417910    34.267773    -71.820930    -0.215928    -31.780514    -129.478317    36.047215    -27.592731    16.112698    3.780492    16.565781    7.387468    52.749161    3.464197    46.297333    -17.134108    -45.939274    125.473930    -22.681168    -16.692492    -1.994806    4.931475    -24.335876    -3.688989    1.370903    31.784325    7.628120    -8.699461    -11.334542    -13.043934    0.611395    0.487427    -0.677117    -9.422298    -5.737773    -11.285363    11.732306    24.591154    -18.545519    0.000000    0.000000    0.000000    0.000000    0.000000    0.000000    
-7.915857    81.432106    108.848717    4.169130    -5.260659    -147.039764    -2.419580    -12.354047    1.084434    0.855836    16.096800    1.225334    1.685274    15.888280    -11.282133    14.964825    8.280514    -10.722345    6.326339    10.130209    -13.990600    -31.011427    34.275246    -72.177979    -0.357785    -31.486044    -129.522583    36.046902    -27.560598    16.087862    3.971583    16.635731    7.145010    52.861908    1.982797    45.249653    -18.517666    -46.172169    123.979004    -21.773600    -15.462818    -1.237641    4.639313    -24.665682    -4.248471    1.599116    31.774687    6.883139    -8.704882    -11.179532    -13.072860    0.684142    0.483142    -0.757689    -9.351043    -5.463455    -11.729650    11.873884    24.485178    -18.950405    0.000000    0.000000    0.000000    0.000000    0.000000    0.000000    
-7.918407    81.435272    108.856674    4.326832    -5.248384    -145.772614    -2.401178    -12.353151    1.180398    0.715438    16.045568    1.339408    1.598368    16.036005    -11.401441    15.129676    8.182348    -10.820252    6.289260    10.156757    -13.816795    -30.610424    34.274014    -72.523254    -0.498954    -31.190369    -129.563736    36.028618    -27.532696    16.053812    4.128744    16.634594    6.889373    52.859188    0.434951    44.137123    -19.977615    -46.419888    122.322990    -20.855843    -14.290123    -0.580284    4.340956    -25.001923    -4.819234    1.819373    31.754074    6.137294    -8.711507    -11.019167    -13.107917    0.755828    0.478596    -0.837088    -9.273171    -5.191813    -12.145474    12.031352    24.361797    -19.380545    0.000000    0.000000    0.000000    0.000000    0.000000    0.000000    
-7.921938    81.439865    108.865143    4.491930    -5.240226    -144.506805    -2.374341    -12.350994    1.272148    0.558044    15.977671    1.450791    1.516055    16.193712    -11.520576    15.314533    8.063241    -10.913548    6.265203    10.189329    -13.653308    -30.227118    34.264904    -72.845459    -0.638793    -30.896709    -129.602951    35.995388    -27.510094    16.012289    4.249701    16.562855    6.622206    52.718689    -1.128383    42.978775    -21.470888    -46.660480    120.530998    -19.946436    -13.223399    -0.045861    4.042017    -25.339550    -5.386679    2.029861    31.723379    5.397575    -8.720102    -10.858927    -13.149786    0.825132    0.475848    -0.913847    -9.189607    -4.927984    -12.525160    12.202533    24.222538    -19.830595    0.000000    0.000000    0.000000    0.000000    0.000000    0.000000    
-7.926404    81.445770    108.873955    4.664323    -5.235763    -143.241013    -2.340857    -12.347841    1.360044    0.385874    15.893333    1.559418    1.440650    16.360170    -11.638721    15.510174    7.928313    -11.002604    6.253122    10.229514    -13.502168    -29.863945    34.249382    -73.142090    -0.778733    -30.604694    -129.641754    35.949516    -27.493999    15.965153    4.335484    16.422842    6.340939    52.423664    -2.682816    41.774326    -22.976843    -46.873787    118.603722    -19.046410    -12.283663    0.364670    3.742167    -25.678581    -5.946579    2.233020    31.682608    4.657801    -8.732212    -10.699486    -13.198914    0.893049    0.475852    -0.989065    -9.100470    -4.671795    -12.872739    12.386023    24.067875    -20.299040    0.000000    0.000000    0.000000    0.000000    0.000000    0.000000    
-7.931878    81.453033    108.882843    4.843873    -5.234214    -141.970413    -2.302842    -12.343704    1.444272    0.200804    15.792828    1.665440    1.372994    16.534397    -11.754862    15.709045    7.783208    -11.087564    6.250828    10.278495    -13.364704    -29.520838    34.230347    -73.410881    -0.919059    -30.316093    -129.681152    35.892311    -27.486195    15.914162    4.386481    16.216486    6.043891    51.957703    -4.209987    40.518539    -24.480141    -47.039917    116.533936    -18.153244    -11.484221    0.658909    3.440105    -26.018635    -6.496511    2.431643    31.630392    3.910354    -8.749281    -10.539727    -13.255655    0.961110    0.479467    -1.064436    -9.005694    -4.421937    -13.195461    12.579619    23.898745    -20.783808    0.000000    0.000000    0.000000    0.000000    0.000000    0.000000    
-7.938458    81.461624    108.891228    5.026248    -5.234527    -140.712479    -2.263269    -12.338479    1.523408    0.007467    15.679637    1.767036    1.314044    16.712559    -11.865396    15.901574    7.635036    -11.166348    6.255780    10.335737    -13.241889    -29.201315    34.211849    -73.647491    -1.056760    -30.039488    -129.721130    35.825317    -27.488689    15.862396    4.401868    15.950137    5.736491    51.319241    -5.665463    39.227646    -25.942940    -47.139103    114.351486    -17.278166    -10.841838    0.847453    3.139286    -26.352179    -7.025584    2.624560    31.566145    3.161645    -8.771803    -10.381081    -13.318690    1.029992    0.487471    -1.140707    -8.907361    -4.180071    -13.494876    12.777998    23.718657    -21.274075    0.000000    0.000000    0.000000    0.000000    0.000000    0.000000    
